<svg width="680" height="650" viewBox="0 0 680 650" xmlns="http://www.w3.org/2000/svg">
<defs>
<marker id="arrow" viewBox="0 0 10 10" refX="8" refY="5" markerWidth="7" markerHeight="7" orient="auto-start-reverse"><path d="M2 1L8 5L2 9" fill="none" stroke="#000000" stroke-width="1.5" stroke-linecap="round" stroke-linejoin="round"/></marker>
</defs>

<circle cx="340" cy="340" r="160" fill="none" stroke="#000000" stroke-width="1"/>

<path d="M381.4,185.5 A160,160 0 0 1 453.1,226.9" fill="none" stroke="#000000" stroke-width="1.5" marker-end="url(#arrow)"/>
<path d="M494.5,298.6 A160,160 0 0 1 494.5,381.4" fill="none" stroke="#000000" stroke-width="1.5" marker-end="url(#arrow)"/>
<path d="M453.1,453.1 A160,160 0 0 1 381.4,494.5" fill="none" stroke="#000000" stroke-width="1.5" marker-end="url(#arrow)"/>
<path d="M298.6,494.5 A160,160 0 0 1 226.9,453.1" fill="none" stroke="#000000" stroke-width="1.5" marker-end="url(#arrow)"/>
<path d="M185.5,381.4 A160,160 0 0 1 185.5,298.6" fill="none" stroke="#000000" stroke-width="1.5" marker-end="url(#arrow)"/>
<path d="M226.9,226.9 A160,160 0 0 1 298.6,185.5" fill="none" stroke="#000000" stroke-width="1.5" marker-end="url(#arrow)"/>

<circle cx="340" cy="180" r="16" fill="#000000"/>
<text x="340" y="180" text-anchor="middle" dominant-baseline="central" font-family="Arial, sans-serif" font-size="14" font-weight="600" fill="#ffffff">1</text>
<circle cx="478.6" cy="260" r="16" fill="#000000"/>
<text x="478.6" y="260" text-anchor="middle" dominant-baseline="central" font-family="Arial, sans-serif" font-size="14" font-weight="600" fill="#ffffff">2</text>
<circle cx="478.6" cy="420" r="16" fill="#000000"/>
<text x="478.6" y="420" text-anchor="middle" dominant-baseline="central" font-family="Arial, sans-serif" font-size="14" font-weight="600" fill="#ffffff">3</text>
<circle cx="340" cy="500" r="16" fill="#000000"/>
<text x="340" y="500" text-anchor="middle" dominant-baseline="central" font-family="Arial, sans-serif" font-size="14" font-weight="600" fill="#ffffff">4</text>
<circle cx="201.4" cy="420" r="16" fill="#000000"/>
<text x="201.4" y="420" text-anchor="middle" dominant-baseline="central" font-family="Arial, sans-serif" font-size="14" font-weight="600" fill="#ffffff">5</text>
<circle cx="201.4" cy="260" r="16" fill="#000000"/>
<text x="201.4" y="260" text-anchor="middle" dominant-baseline="central" font-family="Arial, sans-serif" font-size="14" font-weight="600" fill="#ffffff">6</text>

<text x="340" y="332" text-anchor="middle" dominant-baseline="central" font-family="Arial, sans-serif" font-size="14" font-weight="600" fill="#000000">Environmental</text>
<text x="340" y="354" text-anchor="middle" dominant-baseline="central" font-family="Arial, sans-serif" font-size="14" font-weight="600" fill="#000000">Infrastructure</text>

<text x="340" y="105" text-anchor="middle" font-family="Arial, sans-serif" font-size="14" font-weight="600" fill="#000000">Controlled environments</text>
<text x="515" y="222.5" text-anchor="start" font-family="Arial, sans-serif" font-size="14" font-weight="600" fill="#000000">Staff stability</text>
<text x="515" y="452" text-anchor="start" font-family="Arial, sans-serif" font-size="14" font-weight="600" fill="#000000">
<tspan x="515" dy="0">Parent</tspan>
<tspan x="515" dy="20">confidence</tspan>
</text>
<text x="340" y="575" text-anchor="middle" font-family="Arial, sans-serif" font-size="14" font-weight="600" fill="#000000">Leadership focus</text>
<text x="165" y="452" text-anchor="end" font-family="Arial, sans-serif" font-size="14" font-weight="600" fill="#000000">
<tspan x="165" dy="0">Operational</tspan>
<tspan x="165" dy="20">consistency</tspan>
</text>
<text x="165" y="222.5" text-anchor="end" font-family="Arial, sans-serif" font-size="14" font-weight="600" fill="#000000">Staff retention</text>

</svg>
